<svg xmlns="http://www.w3.org/2000/svg" width="64" height="64" viewBox="0 0 64 64"><g id="Layer_2" data-name="Layer 2"><g id="Layer_1-2" data-name="Layer 1"><rect width="64" height="64" style="fill:#8baf3e"/><path d="M32,51.68a18,18,0,0,0,7.22-34.57,1.64,1.64,0,0,0-1.33,3h0a14.77,14.77,0,1,1-11.81,0,1.64,1.64,0,1,0-1.3-3h0A18,18,0,0,0,32,51.68Z" style="fill:#fff"/><path d="M31.71,12.32h0A1.63,1.63,0,0,1,33.34,14V38.6a0,0,0,0,1,0,0H30.08a0,0,0,0,1,0,0V14a1.63,1.63,0,0,1,1.63-1.63Z" style="fill:#fff"/><rect x="31.9" y="33.57" width="6.13" height="2.69" style="fill:#fff"/><rect x="31.9" y="28.52" width="4" height="2.47" style="fill:#fff"/></g></g></svg>